<?xml version="1.0" standalone="no"?>
<!DOCTYPE svg PUBLIC "-//W3C//DTD SVG 20010904//EN"
 "http://www.w3.org/TR/2001/REC-SVG-20010904/DTD/svg10.dtd">
<svg version="1.0" xmlns="http://www.w3.org/2000/svg"
 width="294.000000pt" height="294.000000pt" viewBox="0 0 294.000000 294.000000"
 preserveAspectRatio="xMidYMid meet">
<metadata>
Created by potrace 1.11, written by Peter Selinger 2001-2013
</metadata>
<g transform="translate(0.000000,294.000000) scale(0.100000,-0.100000)"
fill="#000000" stroke="none">
<path d="M1341 2930 c2 -28 -1 -43 -7 -37 -4 3 -21 0 -38 -7 -17 -7 -38 -11
-46 -9 -9 3 -11 1 -5 -4 6 -4 11 -14 13 -22 3 -12 1 -12 -14 0 -15 12 -17 12
-9 0 6 -11 4 -13 -8 -8 -11 4 -20 -1 -27 -13 -6 -11 -20 -20 -30 -20 -11 0
-19 -3 -19 -7 3 -20 -2 -24 -15 -14 -11 9 -16 9 -22 0 -5 -8 -3 -9 6 -4 9 5
11 4 6 -4 -4 -7 -13 -10 -19 -8 -7 2 -17 -3 -24 -12 -9 -11 -12 -12 -13 -3 0
7 -5 10 -10 7 -6 -4 -8 -10 -5 -15 10 -16 -16 -22 -33 -8 -15 12 -16 11 -4 -4
9 -11 10 -18 2 -23 -5 -3 -10 -1 -10 4 0 6 -4 11 -9 11 -5 0 -7 -10 -4 -22 5
-23 5 -23 -11 -3 -10 11 -15 14 -11 8 4 -8 0 -13 -10 -13 -11 0 -15 -5 -12
-14 4 -11 -1 -13 -18 -10 -20 3 -23 1 -18 -12 5 -13 3 -15 -7 -9 -10 6 -12 4
-7 -8 4 -12 2 -14 -10 -10 -9 4 -21 -1 -29 -12 -8 -10 -14 -14 -14 -8 0 7 5
15 10 18 6 3 10 11 10 18 0 6 -11 -4 -25 -23 -14 -19 -35 -35 -47 -37 -13 -2
-25 -8 -26 -13 -2 -6 -8 -8 -13 -4 -5 3 -9 0 -9 -5 0 -6 -6 -10 -12 -9 -7 2
-12 -3 -10 -10 2 -9 -4 -11 -18 -7 -14 4 -20 2 -20 -9 0 -8 -5 -18 -12 -22 -8
-5 -9 -2 -4 11 5 15 4 16 -9 5 -8 -7 -12 -17 -9 -22 4 -6 -3 -5 -15 1 -16 9
-20 9 -15 -2 3 -8 -2 -20 -11 -27 -8 -7 -15 -9 -15 -5 0 4 -7 2 -15 -5 -13
-11 -15 -10 -10 6 4 13 2 12 -6 -3 -7 -13 -16 -23 -21 -23 -5 0 -6 6 -2 13 4
7 3 9 -2 4 -5 -5 -10 -13 -10 -18 -1 -5 -2 -12 -3 -15 0 -4 -7 -1 -15 5 -11 9
-16 9 -22 0 -4 -8 -3 -9 4 -5 7 4 12 2 12 -3 0 -6 -7 -11 -16 -11 -8 0 -12 -4
-9 -10 4 -6 -1 -7 -11 -3 -13 5 -15 3 -9 -8 6 -11 5 -12 -6 -1 -18 16 -26 15
-33 -4 -5 -14 -4 -15 9 -4 8 7 15 9 15 5 0 -19 -35 -33 -55 -22 -17 9 -18 8
-7 -5 11 -14 9 -16 -17 -14 -24 2 -28 -1 -19 -11 8 -11 7 -12 -7 -7 -14 6 -16
4 -10 -6 6 -10 3 -12 -14 -7 -18 4 -20 3 -11 -8 9 -11 7 -13 -14 -9 -19 3 -26
0 -26 -11 0 -9 4 -13 10 -10 5 3 10 1 10 -5 0 -6 -11 -8 -26 -6 -22 4 -24 3
-13 -10 10 -12 9 -13 -6 -7 -15 5 -17 3 -12 -12 6 -15 5 -16 -8 -5 -13 11 -16
11 -13 -1 2 -8 8 -18 13 -22 6 -5 1 -7 -11 -4 -17 3 -20 1 -17 -14 3 -10 10
-16 17 -12 6 3 6 0 -1 -7 -11 -12 -15 -11 -25 3 -12 16 -13 15 -14 -8 -1 -16
2 -22 10 -18 7 4 6 1 -1 -9 -18 -21 -18 -1364 -1 -1374 6 -4 8 -3 5 3 -4 6 1
17 10 24 15 12 16 12 10 -3 -3 -10 -1 -20 5 -24 7 -5 5 -12 -8 -22 -18 -13
-18 -14 3 -8 17 6 22 2 25 -16 2 -16 9 -23 25 -22 15 1 20 -3 15 -14 -3 -10
-1 -13 6 -8 11 7 16 -5 13 -29 -1 -5 6 -1 15 10 16 20 16 20 9 -3 -6 -22 -5
-23 17 -11 21 11 22 11 9 -4 -12 -15 -10 -17 13 -17 16 0 25 -4 21 -10 -3 -5
1 -10 9 -10 21 0 56 -31 49 -43 -3 -6 -1 -7 5 -3 6 3 13 2 16 -3 3 -5 20 -8
37 -7 16 1 33 -2 36 -7 3 -6 1 -7 -5 -3 -7 4 -12 3 -12 -3 0 -5 9 -13 20 -16
12 -4 17 -11 14 -18 -4 -7 -4 -9 1 -5 4 4 15 2 24 -5 14 -10 14 -10 3 5 -11
13 -11 18 0 24 7 4 10 4 6 0 -4 -5 3 -18 15 -31 17 -17 25 -20 36 -11 9 7 12
7 9 1 -4 -6 -3 -17 3 -25 7 -13 9 -12 9 3 0 9 4 17 10 17 5 0 7 -6 5 -12 -6
-16 4 -29 35 -47 22 -13 24 -12 13 1 -10 12 -10 15 2 15 8 0 15 -8 15 -18 0
-19 33 -35 50 -24 6 4 7 -1 3 -12 -6 -16 -5 -16 10 -4 16 12 21 8 18 -12 -1
-4 4 -7 11 -5 16 3 74 -53 70 -67 -2 -5 2 -4 9 3 7 6 17 12 22 12 4 0 5 -6 1
-12 -5 -10 -4 -10 6 -1 10 9 16 8 27 -3 8 -8 19 -11 25 -8 7 4 8 2 4 -4 -5 -9
-13 -9 -27 -2 -28 15 -23 5 7 -15 15 -9 23 -12 20 -6 -4 6 -2 11 3 11 6 0 11
-8 12 -17 0 -16 1 -16 8 1 7 18 8 18 14 2 4 -10 13 -16 22 -13 9 4 12 1 9 -7
-3 -7 2 -19 11 -26 12 -10 18 -10 31 0 8 8 14 9 13 4 -3 -19 1 -34 12 -34 5 0
8 4 5 8 -3 5 1 9 9 9 11 0 12 -5 3 -21 -6 -12 -7 -18 -3 -14 4 4 17 3 28 -3
14 -8 18 -8 13 0 -4 6 -2 11 3 11 6 0 11 -8 11 -17 0 -15 2 -16 10 -3 8 13 10
12 10 -2 0 -10 5 -18 11 -18 5 0 7 -6 3 -12 -5 -9 -2 -9 9 1 13 10 17 10 17 1
0 -10 3 -10 14 -1 12 10 13 8 8 -11 -5 -21 -4 -22 13 -8 17 14 18 14 6 -9 -11
-19 -11 -22 1 -15 22 14 40 13 34 -1 -3 -8 0 -17 6 -21 7 -4 8 -3 4 4 -4 7 -2
12 3 12 6 0 11 -7 11 -15 0 -18 5 -19 32 -4 11 6 18 7 14 1 -3 -5 5 -12 19
-14 22 -5 23 -3 13 10 -11 13 -10 14 8 4 12 -6 25 -8 30 -4 5 4 3 0 -3 -8 -9
-12 -7 -15 12 -15 16 0 20 3 14 11 -7 8 0 10 21 8 22 -3 29 0 24 9 -5 9 -4 9
6 0 11 -10 16 -9 27 5 8 9 12 11 8 5 -3 -7 -1 -13 4 -13 10 0 15 13 12 32 -1
8 20 5 38 -6 9 -6 12 -5 8 1 -4 6 5 21 20 34 18 16 27 20 30 12 3 -7 9 -13 14
-13 4 0 5 8 2 17 -6 15 -4 16 9 6 15 -13 28 -8 28 11 0 6 -5 4 -10 -4 -5 -8
-10 -10 -10 -4 0 18 23 31 52 30 22 -1 25 1 15 13 -10 12 -9 13 11 2 14 -8 22
-8 23 -1 1 5 3 15 4 20 1 6 3 13 4 16 0 4 7 1 15 -5 11 -9 15 -7 19 10 5 19 9
20 21 10 13 -11 15 -10 11 8 -2 12 0 19 4 17 4 -3 17 1 27 8 14 11 24 11 39 3
18 -9 19 -9 6 7 -12 14 -12 16 3 10 13 -5 15 -2 9 12 -5 15 -4 17 8 8 12 -9
21 -10 45 -5 4 0 1 7 -5 15 -10 12 -8 13 8 9 13 -3 21 -1 21 6 0 7 -6 9 -12 5
-7 -4 -9 -3 -5 1 4 5 15 10 23 11 25 4 84 34 84 43 0 5 7 12 16 15 14 5 15 4
5 -8 -8 -10 -9 -16 -1 -21 5 -3 11 -4 11 -1 1 3 3 11 4 16 1 6 3 17 4 26 0 8
6 12 11 9 6 -4 7 -11 4 -17 -4 -7 -2 -8 5 -4 6 4 8 12 5 18 -5 7 -2 9 8 5 21
-7 31 3 18 18 -7 8 -5 12 5 12 8 0 12 -4 9 -8 -2 -4 0 -10 6 -14 6 -3 10 3 10
16 0 19 2 20 17 8 11 -10 14 -10 9 -1 -4 7 -1 12 8 13 9 1 22 2 29 3 6 0 12 8
12 16 1 8 7 14 14 12 9 -2 11 3 7 15 -6 15 -4 14 15 -3 12 -10 19 -13 15 -6
-13 21 22 54 45 42 15 -9 17 -7 14 11 -3 12 -2 19 2 15 3 -3 12 -1 18 4 7 6
25 11 40 12 18 2 30 10 33 21 4 15 7 16 13 5 7 -10 9 -8 9 6 0 15 3 16 15 6
13 -11 14 -10 9 4 -5 14 -2 17 17 14 16 -2 23 1 21 11 -2 9 3 11 13 7 13 -5
14 -2 4 17 -11 20 -11 21 4 8 14 -11 17 -11 17 -1 0 8 3 11 6 7 7 -7 34 17 34
29 0 5 -5 3 -12 -4 -7 -7 -17 -12 -22 -12 -6 0 0 7 12 16 12 8 27 12 32 9 6
-3 10 -1 10 4 0 6 -5 11 -11 11 -6 0 -4 7 5 15 8 9 13 21 10 29 -3 7 3 19 12
27 12 9 15 10 10 2 -4 -7 -2 -13 3 -13 15 0 14 13 -1 29 -10 11 -10 12 -1 7
10 -5 12 130 12 628 0 489 -2 636 -12 639 -9 4 -9 6 1 6 20 2 14 28 -9 34 -12
3 -18 10 -15 15 3 6 1 13 -4 15 -6 3 -5 4 2 3 7 -2 12 -8 11 -13 -1 -5 4 -10
12 -10 10 0 11 4 2 19 -7 10 -15 18 -20 18 -4 0 -6 4 -2 9 3 5 1 12 -5 16 -6
4 -8 11 -4 16 3 5 0 8 -8 7 -7 -2 -12 3 -10 10 1 8 -2 11 -9 7 -7 -5 -3 -15
12 -31 12 -13 19 -24 15 -24 -4 0 -18 12 -31 28 -18 21 -21 30 -12 41 10 11 8
13 -12 6 -17 -5 -21 -4 -16 5 10 17 -26 41 -43 28 -7 -6 -15 -8 -19 -4 -3 3
-1 6 5 6 7 0 12 5 12 11 0 5 -4 8 -9 5 -5 -3 -12 1 -15 10 -3 8 -10 12 -16 9
-5 -3 -19 0 -31 8 -15 11 -17 16 -7 20 9 4 9 6 1 6 -6 1 -15 -3 -18 -9 -3 -5
-12 -10 -18 -10 -7 0 -6 4 3 10 13 9 13 10 0 11 -8 1 -18 1 -22 0 -13 -2 -9
17 5 23 6 3 1 3 -12 0 -16 -4 -21 -3 -17 5 5 7 2 10 -6 9 -7 -2 -12 3 -10 10
1 8 -2 11 -7 7 -6 -3 -8 -13 -5 -23 4 -12 2 -11 -7 3 -23 36 -37 46 -42 32 -3
-6 -6 -3 -6 7 -1 20 -1 20 -16 0 -14 -18 -14 -18 -8 4 3 13 1 22 -6 22 -7 0
-9 -5 -5 -12 6 -10 4 -10 -8 0 -11 9 -18 9 -21 2 -3 -6 -4 -5 -3 2 2 7 8 13
13 13 6 0 14 3 17 7 3 5 3 6 0 3 -4 -2 -16 0 -27 6 -14 8 -18 8 -13 0 4 -7 1
-9 -8 -5 -8 3 -16 13 -18 22 -2 9 -12 17 -23 17 -12 0 -19 6 -17 14 3 12 0 12
-12 1 -10 -8 -16 -9 -16 -2 0 6 -7 9 -15 6 -11 -5 -13 -2 -9 11 6 15 4 16 -16
5 -15 -8 -20 -8 -16 -1 4 6 2 11 -4 11 -6 0 -8 5 -5 10 4 6 -5 10 -19 10 -17
0 -26 5 -26 16 0 12 -6 15 -20 11 -18 -4 -20 -2 -14 16 6 22 6 22 -11 2 -16
-20 -16 -20 -12 3 3 12 1 20 -3 17 -5 -3 -10 -2 -13 2 -2 5 -2 2 -1 -5 2 -8
-10 -5 -36 8 -22 11 -40 27 -40 35 0 8 -5 15 -11 15 -5 0 -7 -6 -3 -12 5 -9 3
-9 -9 1 -9 7 -14 18 -10 24 4 6 1 7 -8 1 -22 -14 -36 -13 -36 2 0 10 4 11 14
3 9 -8 13 -8 13 0 0 10 -14 15 -34 12 -18 -3 -46 11 -46 24 0 13 -36 31 -52
27 -5 -1 -8 2 -8 7 0 5 -13 14 -30 20 -16 5 -30 15 -30 22 0 8 -5 7 -17 -2 -9
-8 -14 -9 -10 -3 8 13 -19 27 -34 18 -5 -3 -9 -2 -8 3 1 4 1 15 0 23 -1 12 -3
13 -10 1 -7 -10 -10 -10 -16 -1 -4 7 -1 16 6 21 9 6 10 9 2 9 -6 0 -14 -4 -17
-8 -6 -11 -43 -9 -53 3 -5 4 -2 5 5 1 6 -4 12 -2 12 4 0 7 -31 10 -95 9 -54
-2 -90 -6 -83 -11 10 -6 9 -8 -4 -8 -9 0 -19 6 -22 13 -4 8 -5 7 -5 -3z m916
-412 c-3 -8 -6 -5 -6 6 -1 11 2 17 5 13 3 -3 4 -12 1 -19z m-801 -204 c-3 -8
0 -11 9 -8 8 3 13 11 11 17 -1 7 -1 9 1 5 2 -4 12 -4 21 -1 14 5 14 3 -3 -18
-11 -13 -13 -18 -5 -11 8 6 29 12 47 12 20 0 33 -5 33 -12 0 -9 4 -8 10 2 8
13 10 12 10 -4 0 -14 5 -17 21 -13 16 4 19 2 15 -10 -6 -14 -4 -14 11 -2 15
12 16 12 11 -2 -3 -9 -1 -16 5 -17 43 -4 55 -7 51 -14 -3 -5 -11 -5 -17 -1 -7
4 -6 0 2 -10 7 -9 19 -17 25 -17 6 0 4 5 -4 10 -13 8 -13 10 2 10 9 0 20 -9
23 -20 4 -13 15 -20 30 -20 13 0 25 -5 27 -10 2 -6 13 -12 25 -13 12 0 19 -5
17 -9 -3 -4 0 -8 6 -8 6 0 8 -5 4 -12 -5 -8 0 -7 11 2 15 12 17 12 10 1 -6
-11 -4 -13 9 -8 11 5 15 3 10 -5 -5 -7 0 -9 14 -6 16 5 19 2 15 -11 -4 -9 -3
-13 1 -10 4 4 21 -6 39 -22 17 -16 36 -29 42 -29 5 0 3 5 -5 10 -13 8 -12 10
3 10 9 0 17 -7 17 -16 0 -14 3 -14 15 -4 13 11 14 10 9 -5 -6 -14 -4 -16 6
-10 10 6 12 4 7 -8 -3 -9 -3 -16 1 -16 18 3 33 -2 28 -9 -3 -5 2 -9 11 -9 12
0 11 5 -7 19 -25 20 -14 24 13 4 9 -7 17 -20 17 -29 0 -9 5 -19 12 -23 7 -4 8
-3 4 4 -5 8 -2 10 8 6 9 -3 13 -10 10 -15 -3 -5 2 -6 10 -3 11 4 16 0 16 -11
0 -10 -4 -13 -12 -9 -9 5 -9 2 1 -9 7 -9 19 -17 25 -17 6 0 4 5 -4 10 -8 5
-10 10 -4 10 18 0 37 -28 37 -55 0 -14 3 -25 7 -25 12 0 6 -26 -10 -46 -14
-16 -13 -16 6 -6 19 10 21 9 16 -13 -2 -14 -7 -23 -11 -21 -4 3 -7 -4 -7 -14
0 -15 3 -17 15 -7 12 9 13 9 7 0 -4 -7 -4 -19 1 -25 13 -22 12 -37 -4 -31 -8
3 -12 12 -8 22 5 13 4 13 -6 4 -10 -10 -9 -17 6 -33 12 -13 14 -20 5 -20 -10
0 -9 -4 1 -17 12 -15 12 -16 -6 -10 -17 6 -16 3 5 -15 16 -14 19 -19 8 -15
-10 4 -18 2 -18 -3 0 -5 8 -14 18 -20 13 -9 13 -10 1 -7 -12 4 -15 0 -11 -19
4 -21 7 -23 21 -12 14 12 14 11 3 -4 -8 -9 -10 -23 -6 -29 4 -8 3 -9 -4 -5 -8
5 -12 0 -12 -13 0 -11 5 -23 10 -26 6 -4 8 -11 4 -16 -3 -5 -9 -7 -14 -4 -19
12 -18 -15 2 -40 l21 -28 -24 12 -24 12 25 -22 c18 -16 20 -21 6 -16 -14 6
-17 4 -12 -9 3 -9 3 -21 -1 -27 -11 -18 -11 -47 0 -40 6 4 8 0 4 -10 -3 -9 -1
-19 5 -23 7 -5 8 -2 3 6 -5 9 -4 11 4 6 6 -4 9 -12 5 -17 -3 -5 -10 -7 -15 -4
-5 4 -9 2 -9 -4 0 -5 4 -12 9 -15 5 -3 7 -15 4 -26 -3 -11 -9 -18 -13 -15 -5
3 -12 0 -16 -6 -4 -8 -3 -9 4 -5 6 3 16 -3 22 -15 8 -15 9 -19 1 -15 -6 4 -11
2 -11 -4 0 -6 -5 -8 -12 -4 -7 4 -8 3 -4 -4 12 -19 16 -53 6 -47 -6 3 -18 1
-27 -5 -16 -11 -16 -11 -1 -6 10 3 20 1 23 -5 4 -5 1 -8 -6 -7 -7 2 -13 -2
-14 -9 0 -7 -6 -18 -14 -25 -12 -11 -13 -11 -6 1 6 10 4 12 -4 7 -7 -5 -10
-14 -7 -22 3 -9 0 -11 -11 -7 -12 5 -14 3 -8 -8 8 -12 6 -12 -8 0 -15 12 -17
12 -12 -2 4 -8 1 -18 -6 -23 -8 -5 -10 -3 -4 6 5 9 4 11 -3 6 -7 -4 -12 -15
-12 -24 -1 -15 -2 -15 -15 2 -18 24 -20 13 -3 -17 10 -19 9 -20 -4 -9 -13 10
-17 10 -22 -3 -5 -13 -10 -14 -27 -4 -13 7 -19 7 -15 1 7 -12 -31 -52 -48 -52
-6 0 0 7 12 16 12 8 22 19 22 25 0 5 -9 0 -21 -12 -11 -11 -27 -18 -35 -15 -8
3 -13 2 -9 -3 3 -5 2 -11 -2 -14 -5 -2 -3 -2 4 -1 7 2 15 -2 19 -9 4 -7 4 -9
-1 -5 -4 4 -17 2 -29 -4 -11 -7 -30 -12 -42 -12 -11 -1 -28 -7 -36 -13 -8 -7
-19 -9 -23 -5 -5 4 -5 1 -1 -6 6 -11 11 -10 26 3 16 14 18 14 24 0 3 -9 2 -13
-4 -10 -6 3 -16 3 -22 -2 -7 -4 -24 -7 -38 -8 -14 0 -26 -6 -26 -12 -3 -24 -4
-25 -18 -14 -11 9 -14 8 -12 -6 1 -17 -3 -19 -40 -22 -10 -1 -14 -7 -10 -17 3
-8 2 -13 -3 -9 -5 3 -11 2 -14 -2 -2 -5 -2 -2 0 6 3 11 0 11 -10 3 -8 -7 -16
-9 -19 -6 -3 3 -5 -3 -5 -13 1 -9 -5 -18 -13 -18 -8 -1 -14 -7 -12 -14 1 -7
-2 -10 -8 -6 -6 3 -8 10 -5 15 3 5 1 12 -5 15 -6 4 -9 1 -8 -7 2 -7 -3 -12
-11 -10 -8 2 -11 -3 -8 -11 3 -8 -1 -14 -9 -14 -8 0 -13 6 -10 12 2 6 -2 12
-8 12 -7 0 -12 -10 -10 -23 2 -18 -2 -22 -18 -19 -11 3 -26 12 -34 22 -12 17
-13 16 -7 -5 4 -18 2 -21 -11 -16 -9 3 -14 9 -11 13 2 4 -3 8 -11 8 -8 0 -13
-6 -10 -13 3 -8 0 -11 -10 -7 -8 3 -13 11 -11 17 3 8 -5 11 -24 8 -17 -2 -28
0 -27 4 2 5 -1 9 -7 9 -5 0 -9 -3 -7 -7 4 -15 -16 -8 -22 8 -3 8 -10 12 -16 9
-5 -3 -7 0 -4 9 4 11 0 13 -15 9 -22 -5 -55 19 -43 32 4 5 -1 5 -11 2 -10 -4
-16 -3 -13 2 3 5 -1 14 -9 21 -13 11 -15 10 -9 -6 5 -16 3 -16 -14 4 -11 12
-25 22 -30 22 -5 0 -13 7 -16 16 -4 9 -9 14 -13 11 -3 -4 -13 -1 -22 6 -14 11
-15 10 -1 -7 13 -18 13 -19 0 -11 -8 5 -21 10 -28 11 -8 2 -17 6 -20 10 -4 4
1 4 11 1 13 -5 17 -3 14 5 -2 7 -12 12 -22 10 -10 -2 -14 1 -10 7 4 7 0 8 -11
4 -12 -4 -15 -3 -10 5 4 7 1 12 -9 12 -10 0 -13 -5 -9 -12 5 -9 2 -9 -9 1 -9
7 -17 19 -17 26 0 7 -10 11 -26 9 -19 -2 -24 1 -20 12 3 8 0 15 -7 16 -13 1
-28 4 -39 8 -5 1 -14 3 -20 4 -7 1 -12 9 -10 19 2 9 -2 17 -8 17 -6 0 -8 5 -4
12 4 7 3 8 -5 4 -6 -4 -9 -11 -6 -16 3 -5 1 -12 -5 -15 -6 -4 -10 -3 -9 2 4
26 -24 49 -54 44 -5 -1 -6 3 -2 9 5 8 12 7 23 -2 15 -12 16 -11 3 5 -8 10 -21
15 -29 12 -12 -4 -13 -3 -2 10 10 13 9 15 -10 15 -18 0 -20 3 -11 13 13 17 2
31 -14 17 -8 -6 -11 -1 -11 18 1 17 -4 26 -12 24 -8 -1 -11 2 -7 8 3 6 10 8
15 5 5 -3 12 0 16 6 4 7 3 9 -3 6 -6 -4 -16 0 -23 8 -10 12 -9 15 6 15 18 1
18 1 2 11 -10 5 -18 14 -18 19 0 5 8 7 18 3 14 -5 14 -3 -2 9 -25 20 -30 49
-8 41 10 -4 14 -3 10 2 -4 4 -2 15 5 23 9 13 9 14 0 8 -9 -5 -13 0 -13 14 0
13 4 19 12 14 7 -4 8 -3 4 5 -4 6 -12 9 -17 6 -5 -4 -9 0 -10 7 0 7 -2 21 -4
30 -2 12 2 15 13 11 10 -4 14 -3 10 2 -4 4 -2 15 5 23 6 9 7 13 1 10 -5 -4
-15 7 -22 24 l-11 30 22 -18 c12 -10 16 -12 10 -4 -16 18 -17 34 -1 24 7 -4 8
-3 4 5 -4 6 -13 8 -19 5 -8 -5 -8 -3 1 7 6 7 12 18 12 24 0 5 -4 4 -9 -3 -6
-10 -10 -9 -14 7 -3 14 2 26 16 36 12 8 16 15 9 15 -15 0 -12 31 3 43 6 5 -1
5 -15 1 -20 -6 -23 -4 -14 7 6 8 14 22 17 31 5 13 2 15 -11 11 -9 -3 -14 -3
-10 2 4 4 3 14 -4 22 -8 10 -8 17 -1 24 8 8 13 7 18 -2 6 -8 4 -10 -5 -4 -8 5
-11 3 -8 -5 2 -8 10 -16 18 -18 7 -3 10 0 6 7 -4 6 -1 11 6 12 10 0 10 2 1 6
-7 2 -13 11 -13 19 0 9 -5 12 -12 8 -10 -6 -10 -4 0 7 6 7 12 23 12 36 0 13
-6 23 -12 24 -10 0 -10 2 0 6 6 2 10 9 7 13 -3 5 0 12 6 16 8 4 9 3 5 -4 -4
-7 -2 -12 3 -12 6 0 11 7 11 15 0 8 -6 15 -12 15 -9 0 -9 3 1 9 12 8 12 13 3
24 -10 12 -8 14 12 12 22 -3 24 -1 16 20 -8 20 -6 23 8 18 9 -3 14 -3 10 2 -4
4 0 14 8 22 8 8 11 19 8 25 -4 5 4 5 16 -2 15 -8 20 -8 16 -1 -4 6 -2 11 3 11
6 0 11 5 11 11 0 5 -4 7 -10 4 -6 -4 -7 1 -3 11 4 11 8 13 11 6 2 -7 13 -12
25 -12 18 0 20 2 7 11 -12 9 -10 10 8 6 19 -5 21 -3 11 9 -10 12 -9 13 6 8 14
-6 16 -4 10 6 -5 8 -4 11 3 7 13 -9 44 2 37 13 -3 5 -1 11 4 14 5 4 13 1 17
-5 5 -8 3 -9 -6 -4 -9 5 -11 4 -6 -4 4 -6 12 -9 17 -5 5 3 6 10 3 16 -5 7 -1
9 9 5 8 -3 21 1 27 8 7 8 16 13 20 10 5 -3 12 0 16 6 4 8 3 9 -4 5 -7 -4 -12
-2 -12 5 0 7 8 9 21 6 17 -5 18 -3 7 11 -8 10 -9 13 -1 9 6 -4 15 -2 18 4 4 5
13 8 21 5 7 -3 16 -1 19 4 4 6 1 10 -6 10 -7 0 -9 3 -6 6 4 4 13 1 22 -6 13
-11 15 -10 10 2 -4 10 2 14 22 14 23 -1 28 3 27 21 -1 17 3 20 24 17 19 -4 23
-1 18 11 -5 13 -2 14 15 4 12 -6 19 -7 16 -2 -3 4 2 17 10 28 15 19 15 19 9
-5 -6 -21 -5 -22 4 -7 6 9 16 14 22 11 7 -5 8 -2 3 6 -6 10 -4 12 9 7 10 -4
15 -3 11 3 -3 6 1 10 9 10 9 0 15 5 14 11 -2 6 5 13 15 14 9 2 17 -1 17 -6 0
-6 5 -7 10 -4 6 4 8 9 6 13 -2 4 10 7 27 7 21 0 31 4 29 13 -1 8 2 11 8 7 6
-4 9 -13 6 -21z m1182 -19 c-3 -3 -9 2 -12 12 -6 14 -5 15 5 6 7 -7 10 -15 7
-18z m-873 -85 c3 -5 1 -10 -4 -10 -6 0 -11 5 -11 10 0 6 2 10 4 10 3 0 8 -4
11 -10z m-601 -18 c3 -5 -1 -9 -9 -9 -8 0 -12 4 -9 9 3 4 7 8 9 8 2 0 6 -4 9
-8z m-166 -96 c-7 -8 -15 -12 -17 -11 -5 6 10 25 20 25 5 0 4 -6 -3 -14z m992
-12 c0 -8 -19 -13 -24 -6 -3 5 1 9 9 9 8 0 15 -2 15 -3z m-1285 -504 c-3 -5
-12 -10 -18 -10 -7 0 -6 4 3 10 19 12 23 12 15 0z m1550 -152 c5 4 5 1 1 -6
-6 -10 -11 -10 -22 -1 -8 6 -14 14 -14 16 0 3 6 0 13 -6 8 -6 18 -7 22 -3z
m-1550 -28 c3 -5 1 -10 -4 -10 -6 0 -11 5 -11 10 0 6 2 10 4 10 3 0 8 -4 11
-10z m1540 -77 c-2 -10 -4 -19 -4 -21 -1 -2 -6 0 -11 3 -8 5 -7 11 1 21 15 18
18 18 14 -3z m-1081 -552 c-5 -6 -34 20 -34 30 0 5 8 1 18 -8 10 -10 17 -20
16 -22z m634 4 c-3 -3 -9 2 -12 12 -6 14 -5 15 5 6 7 -7 10 -15 7 -18z m-1336
-199 c9 -18 8 -19 -3 -6 -8 8 -21 20 -29 27 -13 11 -13 12 3 7 10 -4 22 -16
29 -28z m1872 -84 c3 -5 -1 -9 -9 -9 -8 0 -12 4 -9 9 3 4 7 8 9 8 2 0 6 -4 9
-8z m-1569 -90 c-3 -3 -11 0 -18 7 -9 10 -8 11 6 5 10 -3 15 -9 12 -12z m145
-84 c0 -5 -11 -1 -25 8 -14 9 -25 18 -25 20 0 2 11 -2 25 -8 14 -6 25 -15 25
-20z m180 -100 c0 -4 -4 -8 -9 -8 -6 0 -12 4 -15 8 -3 5 1 9 9 9 8 0 15 -4 15
-9z"/>
<path d="M1190 2200 c0 -5 5 -10 11 -10 5 0 7 5 4 10 -3 6 -8 10 -11 10 -2 0
-4 -4 -4 -10z"/>
<path d="M2180 1895 c-11 -13 -10 -14 4 -9 9 3 16 10 16 15 0 13 -6 11 -20 -6z"/>
<path d="M2213 1525 c0 -8 4 -15 9 -15 4 0 8 4 8 9 0 6 -4 12 -8 15 -5 3 -9
-1 -9 -9z"/>
<path d="M708 1523 c7 -3 16 -2 19 1 4 3 -2 6 -13 5 -11 0 -14 -3 -6 -6z"/>
<path d="M2210 1483 c0 -6 8 -17 18 -24 16 -13 16 -13 2 6 -8 11 -16 22 -17
24 -2 2 -3 0 -3 -6z"/>
<path d="M706 1348 c3 -5 10 -6 15 -3 13 9 11 12 -6 12 -8 0 -12 -4 -9 -9z"/>
<path d="M708 1233 c7 -3 16 -2 19 1 4 3 -2 6 -13 5 -11 0 -14 -3 -6 -6z"/>
<path d="M874 948 c-4 -7 -4 -10 1 -6 4 4 15 2 24 -5 14 -11 14 -10 2 6 -16
20 -18 21 -27 5z"/>
<path d="M1270 730 c0 -5 5 -10 11 -10 5 0 7 5 4 10 -3 6 -8 10 -11 10 -2 0
-4 -4 -4 -10z"/>
<path d="M1827 2779 c7 -7 15 -10 18 -7 3 3 -2 9 -12 12 -14 6 -15 5 -6 -5z"/>
<path d="M1950 2709 c0 -5 5 -7 10 -4 6 3 10 8 10 11 0 2 -4 4 -10 4 -5 0 -10
-5 -10 -11z"/>
<path d="M603 2495 c0 -8 4 -12 9 -9 5 3 6 10 3 15 -9 13 -12 11 -12 -6z"/>
<path d="M2747 799 c7 -7 15 -10 18 -7 3 3 -2 9 -12 12 -14 6 -15 5 -6 -5z"/>
<path d="M2475 569 c-4 -6 -5 -12 -2 -15 2 -3 7 2 10 11 7 17 1 20 -8 4z"/>
<path d="M1910 239 c0 -5 5 -7 10 -4 6 3 10 8 10 11 0 2 -4 4 -10 4 -5 0 -10
-5 -10 -11z"/>
<path d="M1746 148 c3 -5 10 -6 15 -3 13 9 11 12 -6 12 -8 0 -12 -4 -9 -9z"/>
<path d="M1665 110 c-3 -5 -1 -10 4 -10 6 0 11 5 11 10 0 6 -2 10 -4 10 -3 0
-8 -4 -11 -10z"/>
</g>
</svg>
